<svg width="20" height="20" viewBox="0 0 20 20" fill="none" xmlns="http://www.w3.org/2000/svg">
<g clip-path="url(#clip0_2315_13102)">
<path d="M4.16602 12.5H3.33268C2.89065 12.5 2.46673 12.3244 2.15417 12.0118C1.84161 11.6993 1.66602 11.2754 1.66602 10.8333V3.33332C1.66602 2.8913 1.84161 2.46737 2.15417 2.15481C2.46673 1.84225 2.89065 1.66666 3.33268 1.66666H10.8327C11.2747 1.66666 11.6986 1.84225 12.0112 2.15481C12.3238 2.46737 12.4993 2.8913 12.4993 3.33332V4.16666M9.16602 7.49999H16.666C17.5865 7.49999 18.3327 8.24618 18.3327 9.16666V16.6667C18.3327 17.5871 17.5865 18.3333 16.666 18.3333H9.16602C8.24554 18.3333 7.49935 17.5871 7.49935 16.6667V9.16666C7.49935 8.24618 8.24554 7.49999 9.16602 7.49999Z" stroke="#535862" stroke-width="1.66667" stroke-linecap="round" stroke-linejoin="round"/>
</g>
<defs>
<clipPath id="clip0_2315_13102">
<rect width="20" height="20" fill="white"/>
</clipPath>
</defs>
</svg>
