<svg width="57" height="56" viewBox="0 0 57 56" fill="none" xmlns="http://www.w3.org/2000/svg">
<rect x="5" y="4" width="48" height="48" rx="24" fill="#D1FADF"/>
<rect x="5" y="4" width="48" height="48" rx="24" stroke="#ECFDF3" stroke-width="8"/>
<path d="M39 27.08V28C38.9988 30.1564 38.3005 32.2547 37.0093 33.9818C35.7182 35.709 33.9033 36.9725 31.8354 37.5839C29.7674 38.1953 27.5573 38.1219 25.5345 37.3746C23.5117 36.6273 21.7847 35.2461 20.611 33.4371C19.4373 31.628 18.8798 29.4881 19.0217 27.3363C19.1636 25.1846 19.9972 23.1363 21.3983 21.4971C22.7994 19.8578 24.6928 18.7154 26.7962 18.2401C28.8996 17.7649 31.1003 17.9823 33.07 18.86M39 20L29 30.01L26 27.01" stroke="#039855" stroke-width="2" stroke-linecap="round" stroke-linejoin="round"/>
</svg>
