<svg width="16" height="16" viewBox="0 0 16 16" fill="none" xmlns="http://www.w3.org/2000/svg">
<path d="M13.334 11C12.7807 11 12.334 10.5534 12.334 10V8.33335C12.334 7.78002 12.7807 7.33335 13.334 7.33335C13.8873 7.33335 14.334 7.78002 14.334 8.33335V10C14.334 10.5534 13.8873 11 13.334 11ZM13.0007 13.3334H13.6673V12.3067C14.794 12.1467 15.6673 11.1734 15.6673 10H15.0007C15.0007 10.92 14.254 11.6667 13.334 11.6667C12.414 11.6667 11.6673 10.92 11.6673 10H11.0007C11.0007 11.1734 11.874 12.1467 13.0007 12.3067V13.3334ZM5.66732 8.00002C4.19398 8.00002 3.00065 6.80669 3.00065 5.33335C3.00065 3.86002 4.19398 2.66669 5.66732 2.66669C5.98065 2.66669 6.28065 2.72002 6.56065 2.82002C6.00065 3.50669 5.66732 4.38002 5.66732 5.33335C5.66732 6.28669 6.00065 7.16002 6.56065 7.84669C6.28065 7.94669 5.98065 8.00002 5.66732 8.00002ZM4.40732 8.75335C3.52732 9.36669 3.00065 10.38 3.00065 11.48V13.3334H0.333984V11.48C0.333984 10.7334 0.740651 10.0467 1.40732 9.70669C2.23398 9.28002 3.24732 8.91335 4.40732 8.75335ZM7.00065 5.33335C7.00065 3.86002 8.19399 2.66669 9.66732 2.66669C11.1407 2.66669 12.334 3.86002 12.334 5.33335C12.334 6.80669 11.1407 8.00002 9.66732 8.00002C8.19399 8.00002 7.00065 6.80669 7.00065 5.33335ZM8.33399 5.33335C8.33399 6.06669 8.93399 6.66669 9.66732 6.66669C10.4007 6.66669 11.0007 6.06669 11.0007 5.33335C11.0007 4.60002 10.4007 4.00002 9.66732 4.00002C8.93399 4.00002 8.33399 4.60002 8.33399 5.33335ZM9.66732 10C8.08732 10 6.80732 10.4867 6.01399 10.8934C5.80065 11 5.66732 11.2267 5.66732 11.48V12H10.4473C10.7807 12.5734 11.2807 13.04 11.8807 13.3334H4.33398V11.48C4.33398 10.7334 4.74065 10.0467 5.40732 9.70669C6.52732 9.13335 7.98065 8.66669 9.66732 8.66669C9.92732 8.66669 10.1807 8.68002 10.4273 8.70002C10.2073 9.09335 10.0607 9.54002 10.014 10.0067C9.90065 10 9.78732 10 9.66732 10Z" fill="#A4A7AE"/>
</svg>
