<svg width="20" height="20" viewBox="0 0 20 20" fill="none" xmlns="http://www.w3.org/2000/svg">
<path d="M14.166 5.83331H10.8327V7.49998H14.166C15.541 7.49998 16.666 8.62498 16.666 9.99998C16.666 11.375 15.541 12.5 14.166 12.5H10.8327V14.1666H14.166C16.466 14.1666 18.3327 12.3 18.3327 9.99998C18.3327 7.69998 16.466 5.83331 14.166 5.83331ZM9.16602 12.5H5.83268C4.45768 12.5 3.33268 11.375 3.33268 9.99998C3.33268 8.62498 4.45768 7.49998 5.83268 7.49998H9.16602V5.83331H5.83268C3.53268 5.83331 1.66602 7.69998 1.66602 9.99998C1.66602 12.3 3.53268 14.1666 5.83268 14.1666H9.16602V12.5ZM6.66602 9.16665H13.3327V10.8333H6.66602V9.16665Z" fill="black"/>
</svg>
