<svg width="16" height="16" viewBox="0 0 16 16" fill="none" xmlns="http://www.w3.org/2000/svg">
<g clip-path="url(#clip0_1_13389)">
<path d="M12.6673 6.66669V8.00002C12.6673 9.2377 12.1757 10.4247 11.3005 11.2999C10.4253 12.175 9.23833 12.6667 8.00065 12.6667M8.00065 12.6667C6.76297 12.6667 5.57599 12.175 4.70082 11.2999C3.82565 10.4247 3.33398 9.2377 3.33398 8.00002V6.66669M8.00065 12.6667V15.3334M5.33398 15.3334H10.6673M8.00065 0.666687C7.47022 0.666687 6.96151 0.877401 6.58644 1.25247C6.21136 1.62755 6.00065 2.13625 6.00065 2.66669V8.00002C6.00065 8.53045 6.21136 9.03916 6.58644 9.41423C6.96151 9.78931 7.47022 10 8.00065 10C8.53108 10 9.03979 9.78931 9.41486 9.41423C9.78994 9.03916 10.0007 8.53045 10.0007 8.00002V2.66669C10.0007 2.13625 9.78994 1.62755 9.41486 1.25247C9.03979 0.877401 8.53108 0.666687 8.00065 0.666687Z" stroke="#A4A7AE" stroke-width="1.336" stroke-linecap="round" stroke-linejoin="round"/>
</g>
<defs>
<clipPath id="clip0_1_13389">
<rect width="16" height="16" fill="white"/>
</clipPath>
</defs>
</svg>
