<svg width="14" height="11" viewBox="0 0 14 11" fill="none" xmlns="http://www.w3.org/2000/svg">
<path d="M5.04 0V0.92C4.48667 0.7 3.89333 0.586667 3.3 0.586667C2.10667 0.586667 0.913333 1.04 0 1.95333L2.22 4.17333H2.96V4.91333C3.53333 5.48667 4.28 5.78667 5.03333 5.82V7.33333H3.04V9.33333C3.04 10.0667 3.64 10.6667 4.37333 10.6667H11.04C12.1467 10.6667 13.04 9.77333 13.04 8.66667V0H5.04ZM4.3 4.27333V2.84H2.78L2.08667 2.14667C2.46667 2 2.88 1.92 3.3 1.92C4.19333 1.92 5.02667 2.26667 5.66 2.89333L6.6 3.83333L6.46667 3.96667C6.12667 4.30667 5.67333 4.5 5.18667 4.5C4.87333 4.5 4.56667 4.42 4.3 4.27333ZM11.7067 8.66667C11.7067 9.03333 11.4067 9.33333 11.04 9.33333C10.6733 9.33333 10.3733 9.03333 10.3733 8.66667V7.33333H6.37333V5.60667C6.75333 5.45333 7.10667 5.22667 7.41333 4.92L7.54667 4.78667L9.43333 6.66667H10.3733V5.72667L6.37333 1.74667V1.33333H11.7067V8.66667Z" fill="#A4A7AE"/>
</svg>
