<svg width="20" height="20" viewBox="0 0 20 20" fill="none" xmlns="http://www.w3.org/2000/svg">
<path d="M11.666 5.41667V3.75H8.33268V5.41667H11.666ZM3.33268 7.08334V16.25H16.666V7.08334H3.33268ZM16.666 5.41667C17.591 5.41667 18.3327 6.15834 18.3327 7.08334V16.25C18.3327 17.175 17.591 17.9167 16.666 17.9167H3.33268C2.40768 17.9167 1.66602 17.175 1.66602 16.25L1.67435 7.08334C1.67435 6.15834 2.40768 5.41667 3.33268 5.41667H6.66602V3.75C6.66602 2.825 7.40768 2.08334 8.33268 2.08334H11.666C12.591 2.08334 13.3327 2.825 13.3327 3.75V5.41667H16.666Z" fill="#A4A7AE"/>
</svg>
