<svg width="32" height="32" viewBox="0 0 32 32" fill="none" xmlns="http://www.w3.org/2000/svg">
<g filter="url(#filter0_d_1_13379)">
<path d="M2 15C2 7.26801 8.26801 1 16 1C23.732 1 30 7.26801 30 15C30 22.732 23.732 29 16 29C8.26801 29 2 22.732 2 15Z" fill="white"/>
<path d="M16 1.5C23.4558 1.5 29.5 7.54416 29.5 15C29.5 22.4558 23.4558 28.5 16 28.5C8.54416 28.5 2.5 22.4558 2.5 15C2.5 7.54416 8.54416 1.5 16 1.5Z" stroke="#D5D7DA"/>
<g clip-path="url(#clip0_1_13379)">
<path d="M16.6667 8.33334L10 16.3333H16L15.3333 21.6667L22 13.6667H16L16.6667 8.33334Z" stroke="#535862" stroke-width="1.67" stroke-linecap="round" stroke-linejoin="round"/>
</g>
</g>
<defs>
<filter id="filter0_d_1_13379" x="0" y="0" width="32" height="32" filterUnits="userSpaceOnUse" color-interpolation-filters="sRGB">
<feFlood flood-opacity="0" result="BackgroundImageFix"/>
<feColorMatrix in="SourceAlpha" type="matrix" values="0 0 0 0 0 0 0 0 0 0 0 0 0 0 0 0 0 0 127 0" result="hardAlpha"/>
<feOffset dy="1"/>
<feGaussianBlur stdDeviation="1"/>
<feColorMatrix type="matrix" values="0 0 0 0 0.0392157 0 0 0 0 0.0496732 0 0 0 0 0.0705882 0 0 0 0.05 0"/>
<feBlend mode="normal" in2="BackgroundImageFix" result="effect1_dropShadow_1_13379"/>
<feBlend mode="normal" in="SourceGraphic" in2="effect1_dropShadow_1_13379" result="shape"/>
</filter>
<clipPath id="clip0_1_13379">
<rect width="16" height="16" fill="white" transform="translate(8 7)"/>
</clipPath>
</defs>
</svg>
