<svg width="20" height="20" viewBox="0 0 20 20" fill="none" xmlns="http://www.w3.org/2000/svg">
<path d="M6.0415 12.5H4.7915V8.75H3.5415V7.5H6.0415V12.5ZM11.4582 11.25H8.95817V10.4167H10.6248C11.0832 10.4167 11.4582 10.0417 11.4582 9.58333V8.33333C11.4582 7.875 11.0832 7.5 10.6248 7.5H7.70817V8.75H10.2082V9.58333H8.5415C8.08317 9.58333 7.70817 9.95833 7.70817 10.4167V12.5H11.4582V11.25ZM16.4582 11.6667V8.33333C16.4582 7.875 16.0832 7.5 15.6248 7.5H12.7082V8.75H15.2082V9.58333H13.5415V10.4167H15.2082V11.25H12.7082V12.5H15.6248C16.0832 12.5 16.4582 12.125 16.4582 11.6667Z" fill="#717680"/>
</svg>
