<svg width="20" height="17" viewBox="0 0 20 17" fill="none" xmlns="http://www.w3.org/2000/svg">
<path d="M9.54164 5.92058V9.25391M9.54164 12.5872H9.54998M8.11664 1.63725L1.05831 13.4206C0.912783 13.6726 0.835782 13.9583 0.834967 14.2493C0.834153 14.5404 0.909552 14.8265 1.05367 15.0794C1.19778 15.3322 1.40558 15.5429 1.6564 15.6905C1.90722 15.838 2.19231 15.9174 2.48331 15.9206H16.6C16.891 15.9174 17.1761 15.838 17.4269 15.6905C17.6777 15.5429 17.8855 15.3322 18.0296 15.0794C18.1737 14.8265 18.2491 14.5404 18.2483 14.2493C18.2475 13.9583 18.1705 13.6726 18.025 13.4206L10.9666 1.63725C10.8181 1.39234 10.6089 1.18985 10.3593 1.04932C10.1097 0.908788 9.82809 0.834961 9.54164 0.834961C9.2552 0.834961 8.97359 0.908788 8.72398 1.04932C8.47438 1.18985 8.2652 1.39234 8.11664 1.63725Z" stroke="#F04438" stroke-width="1.67" stroke-linecap="round" stroke-linejoin="round"/>
</svg>
