<svg width="20" height="20" viewBox="0 0 20 20" fill="none" xmlns="http://www.w3.org/2000/svg">
<g clip-path="url(#clip0_2158_12876)">
<path d="M15.833 7.49998L16.8747 5.20831L19.1663 4.16665L16.8747 3.12498L15.833 0.833313L14.7913 3.12498L12.4997 4.16665L14.7913 5.20831L15.833 7.49998Z" fill="white"/>
<path d="M15.833 12.5L14.7913 14.7916L12.4997 15.8333L14.7913 16.875L15.833 19.1666L16.8747 16.875L19.1663 15.8333L16.8747 14.7916L15.833 12.5Z" fill="white"/>
<path d="M9.58301 7.91665L7.49967 3.33331L5.41634 7.91665L0.833008 9.99998L5.41634 12.0833L7.49967 16.6666L9.58301 12.0833L14.1663 9.99998L9.58301 7.91665ZM8.32467 10.825L7.49967 12.6416L6.67467 10.825L4.85801 9.99998L6.67467 9.17498L7.49967 7.35831L8.32467 9.17498L10.1413 9.99998L8.32467 10.825Z" fill="white"/>
</g>
<defs>
<clipPath id="clip0_2158_12876">
<rect width="20" height="20" fill="white"/>
</clipPath>
</defs>
</svg>
