<svg width="16" height="16" viewBox="0 0 16 16" fill="none" xmlns="http://www.w3.org/2000/svg">
<path d="M7.99993 3.88667L9.63993 5.52667C9.89993 5.78667 10.3199 5.78667 10.5799 5.52667C10.8399 5.26667 10.8399 4.84667 10.5799 4.58667L8.4666 2.46667C8.2066 2.20667 7.7866 2.20667 7.5266 2.46667L5.41326 4.58667C5.15326 4.84667 5.15326 5.26667 5.41326 5.52667C5.67326 5.78667 6.09326 5.78667 6.35326 5.52667L7.99993 3.88667ZM7.99993 12.1133L6.35993 10.4733C6.09993 10.2133 5.67993 10.2133 5.41993 10.4733C5.15993 10.7333 5.15993 11.1533 5.41993 11.4133L7.53326 13.5333C7.79326 13.7933 8.21326 13.7933 8.47326 13.5333L10.5866 11.42C10.8466 11.16 10.8466 10.74 10.5866 10.48C10.3266 10.22 9.9066 10.22 9.6466 10.48L7.99993 12.1133Z" fill="#A4A7AE"/>
</svg>
